# Blender 4.1.1
# www.blender.org
mtllib bollard.mtl
o Cube
v 0.100000 1.000000 -0.100000
v 0.100000 0.000000 -0.100000
v 0.100000 1.000000 0.100000
v 0.100000 0.000000 0.100000
v -0.100000 1.000000 -0.100000
v -0.100000 0.000000 -0.100000
v -0.100000 1.000000 0.100000
v -0.100000 0.000000 0.100000
v 0.000000 0.562500 -0.250000
v 0.000000 0.937500 -0.250000
v 0.095671 0.562500 -0.230970
v 0.095671 0.937500 -0.230970
v 0.176777 0.562500 -0.176777
v 0.176777 0.937500 -0.176777
v 0.230970 0.562500 -0.095671
v 0.230970 0.937500 -0.095671
v 0.250000 0.562500 0.000000
v 0.250000 0.937500 0.000000
v 0.230970 0.562500 0.095671
v 0.230970 0.937500 0.095671
v 0.176777 0.562500 0.176777
v 0.176777 0.937500 0.176777
v 0.095671 0.562500 0.230970
v 0.095671 0.937500 0.230970
v 0.000000 0.562500 0.250000
v 0.000000 0.937500 0.250000
v -0.095671 0.562500 0.230970
v -0.095671 0.937500 0.230970
v -0.176777 0.562500 0.176777
v -0.176777 0.937500 0.176777
v -0.230970 0.562500 0.095671
v -0.230970 0.937500 0.095671
v -0.250000 0.562500 0.000000
v -0.250000 0.937500 0.000000
v -0.230970 0.562500 -0.095671
v -0.230970 0.937500 -0.095671
v -0.176777 0.562500 -0.176777
v -0.176777 0.937500 -0.176777
v -0.095671 0.562500 -0.230970
v -0.095671 0.937500 -0.230970
v 0.000000 0.686179 -0.266003
v 0.000000 0.813821 -0.266003
v 0.101795 0.813821 -0.245755
v 0.101795 0.686179 -0.245755
v 0.188093 0.813821 -0.188093
v 0.188093 0.686179 -0.188093
v 0.245755 0.813821 -0.101795
v 0.245755 0.686179 -0.101795
v 0.266003 0.813821 0.000000
v 0.266003 0.686179 0.000000
v 0.245755 0.813821 0.101795
v 0.245755 0.686179 0.101795
v 0.188093 0.813821 0.188093
v 0.188093 0.686179 0.188093
v 0.101795 0.813821 0.245755
v 0.101795 0.686179 0.245755
v 0.000000 0.813821 0.266003
v 0.000000 0.686179 0.266003
v -0.101795 0.813821 0.245755
v -0.101795 0.686179 0.245755
v -0.188093 0.813821 0.188093
v -0.188093 0.686179 0.188093
v -0.245755 0.813821 0.101795
v -0.245755 0.686179 0.101795
v -0.266003 0.813821 0.000000
v -0.266003 0.686179 0.000000
v -0.245755 0.813821 -0.101795
v -0.245755 0.686179 -0.101795
v -0.188093 0.813821 -0.188093
v -0.188093 0.686179 -0.188093
v -0.101795 0.813821 -0.245755
v -0.101795 0.686179 -0.245755
vn -0.0000 1.0000 -0.0000
vn -0.0000 -0.0000 1.0000
vn -1.0000 -0.0000 -0.0000
vn -0.0000 -1.0000 -0.0000
vn 1.0000 -0.0000 -0.0000
vn -0.0000 -0.0000 -1.0000
vn 0.1935 0.1259 -0.9730
vn 0.5511 0.1259 -0.8249
vn 0.8249 0.1259 -0.5511
vn 0.9730 0.1259 -0.1935
vn 0.9730 0.1259 0.1935
vn 0.8249 0.1259 0.5511
vn 0.5511 0.1259 0.8249
vn 0.1935 0.1259 0.9730
vn -0.1935 0.1259 0.9730
vn -0.5511 0.1259 0.8249
vn -0.8249 0.1259 0.5511
vn -0.9730 0.1259 0.1935
vn -0.9730 0.1259 -0.1935
vn -0.8249 0.1259 -0.5511
vn -0.5511 0.1259 -0.8249
vn -0.1935 0.1259 -0.9730
vn -0.1935 -0.1259 -0.9730
vn -0.1951 -0.0000 -0.9808
vn -0.5511 -0.1259 -0.8249
vn -0.5556 -0.0000 -0.8315
vn -0.8249 -0.1259 -0.5511
vn -0.8315 -0.0000 -0.5556
vn -0.9730 -0.1259 -0.1935
vn -0.9808 -0.0000 -0.1951
vn -0.9730 -0.1259 0.1935
vn -0.9808 -0.0000 0.1951
vn -0.8249 -0.1259 0.5511
vn -0.8315 -0.0000 0.5556
vn -0.5511 -0.1259 0.8249
vn -0.5556 -0.0000 0.8315
vn -0.1935 -0.1259 0.9730
vn -0.1951 -0.0000 0.9808
vn 0.1935 -0.1259 0.9730
vn 0.1951 -0.0000 0.9808
vn 0.5511 -0.1259 0.8249
vn 0.5556 -0.0000 0.8315
vn 0.8249 -0.1259 0.5511
vn 0.8315 -0.0000 0.5556
vn 0.9730 -0.1259 0.1935
vn 0.9808 -0.0000 0.1951
vn 0.9730 -0.1259 -0.1935
vn 0.9808 -0.0000 -0.1951
vn 0.8249 -0.1259 -0.5511
vn 0.8315 -0.0000 -0.5556
vn 0.5511 -0.1259 -0.8249
vn 0.5556 -0.0000 -0.8315
vn 0.1935 -0.1259 -0.9730
vn 0.1951 -0.0000 -0.9808
vt 0.625000 0.500000
vt 0.875000 0.500000
vt 0.875000 0.750000
vt 0.625000 0.750000
vt 0.375000 0.750000
vt 0.625000 1.000000
vt 0.375000 1.000000
vt 0.375000 0.000000
vt 0.625000 0.000000
vt 0.625000 0.250000
vt 0.375000 0.250000
vt 0.125000 0.500000
vt 0.375000 0.500000
vt 0.125000 0.750000
vt 1.000000 0.833333
vt 1.000000 1.000000
vt 0.937500 1.000000
vt 0.937500 0.833333
vt 0.875000 1.000000
vt 0.875000 0.833333
vt 0.812500 1.000000
vt 0.812500 0.833333
vt 0.750000 1.000000
vt 0.750000 0.833333
vt 0.687500 1.000000
vt 0.687500 0.833333
vt 0.625000 0.833333
vt 0.562500 1.000000
vt 0.562500 0.833333
vt 0.500000 1.000000
vt 0.500000 0.833333
vt 0.437500 1.000000
vt 0.437500 0.833333
vt 0.375000 0.833333
vt 0.312500 1.000000
vt 0.312500 0.833333
vt 0.250000 1.000000
vt 0.250000 0.833333
vt 0.187500 1.000000
vt 0.187500 0.833333
vt 0.125000 1.000000
vt 0.125000 0.833333
vt 0.341844 0.471731
vt 0.250000 0.490000
vt 0.158156 0.471731
vt 0.080294 0.419706
vt 0.028269 0.341844
vt 0.010000 0.250000
vt 0.028269 0.158156
vt 0.080294 0.080294
vt 0.158156 0.028269
vt 0.250000 0.010000
vt 0.341844 0.028269
vt 0.419706 0.080294
vt 0.471731 0.158156
vt 0.490000 0.250000
vt 0.471731 0.341844
vt 0.419706 0.419706
vt 0.062500 1.000000
vt 0.062500 0.833333
vt 0.000000 1.000000
vt 0.000000 0.833333
vt 0.750000 0.490000
vt 0.841844 0.471731
vt 0.919706 0.419706
vt 0.971731 0.341844
vt 0.990000 0.250000
vt 0.971731 0.158156
vt 0.919706 0.080294
vt 0.841844 0.028269
vt 0.750000 0.010000
vt 0.658156 0.028269
vt 0.580294 0.080294
vt 0.528269 0.158156
vt 0.510000 0.250000
vt 0.528269 0.341844
vt 0.580294 0.419706
vt 0.658156 0.471731
vt 0.062500 0.500000
vt 0.062500 0.666667
vt 0.000000 0.666667
vt 0.000000 0.500000
vt 0.125000 0.666667
vt 0.187500 0.500000
vt 0.187500 0.666667
vt 0.250000 0.500000
vt 0.250000 0.666667
vt 0.312500 0.500000
vt 0.312500 0.666667
vt 0.375000 0.666667
vt 0.437500 0.500000
vt 0.437500 0.666667
vt 0.500000 0.500000
vt 0.500000 0.666667
vt 0.562500 0.500000
vt 0.562500 0.666667
vt 0.625000 0.666667
vt 0.687500 0.500000
vt 0.687500 0.666667
vt 0.750000 0.500000
vt 0.750000 0.666667
vt 0.812500 0.500000
vt 0.812500 0.666667
vt 0.875000 0.666667
vt 0.937500 0.500000
vt 0.937500 0.666667
vt 1.000000 0.500000
vt 1.000000 0.666667
s 0
usemtl Material
f 1/1/1 5/2/1 7/3/1 3/4/1
f 4/5/2 3/4/2 7/6/2 8/7/2
f 8/8/3 7/9/3 5/10/3 6/11/3
f 6/12/4 2/13/4 4/5/4 8/14/4
f 2/13/5 1/1/5 3/4/5 4/5/5
f 6/11/6 5/10/6 1/1/6 2/13/6
f 42/15/7 10/16/7 12/17/7 43/18/7
f 43/18/8 12/17/8 14/19/8 45/20/8
f 45/20/9 14/19/9 16/21/9 47/22/9
f 47/22/10 16/21/10 18/23/10 49/24/10
f 49/24/11 18/23/11 20/25/11 51/26/11
f 51/26/12 20/25/12 22/6/12 53/27/12
f 53/27/13 22/6/13 24/28/13 55/29/13
f 55/29/14 24/28/14 26/30/14 57/31/14
f 57/31/15 26/30/15 28/32/15 59/33/15
f 59/33/16 28/32/16 30/7/16 61/34/16
f 61/34/17 30/7/17 32/35/17 63/36/17
f 63/36/18 32/35/18 34/37/18 65/38/18
f 65/38/19 34/37/19 36/39/19 67/40/19
f 67/40/20 36/39/20 38/41/20 69/42/20
f 12/43/1 10/44/1 40/45/1 38/46/1 36/47/1 34/48/1 32/49/1 30/50/1 28/51/1 26/52/1 24/53/1 22/54/1 20/55/1 18/56/1 16/57/1 14/58/1
f 69/42/21 38/41/21 40/59/21 71/60/21
f 71/60/22 40/59/22 10/61/22 42/62/22
f 9/63/4 11/64/4 13/65/4 15/66/4 17/67/4 19/68/4 21/69/4 23/70/4 25/71/4 27/72/4 29/73/4 31/74/4 33/75/4 35/76/4 37/77/4 39/78/4
f 39/79/23 72/80/23 41/81/23 9/82/23
f 72/80/24 71/60/24 42/62/24 41/81/24
f 37/12/25 70/83/25 72/80/25 39/79/25
f 70/83/26 69/42/26 71/60/26 72/80/26
f 35/84/27 68/85/27 70/83/27 37/12/27
f 68/85/28 67/40/28 69/42/28 70/83/28
f 33/86/29 66/87/29 68/85/29 35/84/29
f 66/87/30 65/38/30 67/40/30 68/85/30
f 31/88/31 64/89/31 66/87/31 33/86/31
f 64/89/32 63/36/32 65/38/32 66/87/32
f 29/13/33 62/90/33 64/89/33 31/88/33
f 62/90/34 61/34/34 63/36/34 64/89/34
f 27/91/35 60/92/35 62/90/35 29/13/35
f 60/92/36 59/33/36 61/34/36 62/90/36
f 25/93/37 58/94/37 60/92/37 27/91/37
f 58/94/38 57/31/38 59/33/38 60/92/38
f 23/95/39 56/96/39 58/94/39 25/93/39
f 56/96/40 55/29/40 57/31/40 58/94/40
f 21/1/41 54/97/41 56/96/41 23/95/41
f 54/97/42 53/27/42 55/29/42 56/96/42
f 19/98/43 52/99/43 54/97/43 21/1/43
f 52/99/44 51/26/44 53/27/44 54/97/44
f 17/100/45 50/101/45 52/99/45 19/98/45
f 50/101/46 49/24/46 51/26/46 52/99/46
f 15/102/47 48/103/47 50/101/47 17/100/47
f 48/103/48 47/22/48 49/24/48 50/101/48
f 13/2/49 46/104/49 48/103/49 15/102/49
f 46/104/50 45/20/50 47/22/50 48/103/50
f 11/105/51 44/106/51 46/104/51 13/2/51
f 44/106/52 43/18/52 45/20/52 46/104/52
f 9/107/53 41/108/53 44/106/53 11/105/53
f 41/108/54 42/15/54 43/18/54 44/106/54
